# xmcd
#
# Track frame offsets:
#	150
#	16521
#	30415
#	42918
#	56155
#	69656
#	82966
#	98976
#	115596
#	131054
#	143549
#	161500
#
# Disc length: 2303 seconds
#
# Revision: 1
# Processed by: cddbd v1.5.2PL0 Copyright (c) Steve Scherf et al.
# Submitted via: EasyCDDAExtractor 7.0.3.1
#
DISCID=9008fd0c
DTITLE=Various Artist - Hits (Disc-2)
DYEAR=1900
DGENRE=Country
TTITLE0=Barbara Mandrell and George Jones - I Was Country When Country Wasn't Co
TTITLE0=ol
TTITLE1=Barbara Mandrell - (If Loving You Is Wrong) I Don't Want to Be Right
TTITLE2=Barbara Mandrell - One Of A Kind Pair of Fools
TTITLE3=Barbara Mandrell - In Times Like These
TTITLE4=Barbara Mandrell - Love Is Fair
TTITLE5=Barbara Mandrell - Tonight
TTITLE6=Barbara Mandrell - Operator, Long Distance Please
TTITLE7=Barbara Mandrell - The Best of Strangers
TTITLE8=Barbara Mandrell - There's No Love in Tennessee
TTITLE9=Barbara Mandrell - Wish You Were Here
TTITLE10=Barbara Mandrell - Grand Tour of My Heart
TTITLE11=Barbara Mandrell - Crackers
EXTD=
EXTT0=
EXTT1=
EXTT2=
EXTT3=
EXTT4=
EXTT5=
EXTT6=
EXTT7=
EXTT8=
EXTT9=
EXTT10=
EXTT11=
PLAYORDER=
